<?xml version="1.0"?>
    <svg version="1.1" xmlns="http://www.w3.org/2000/svg" xmlns:xlink="http://www.w3.org/1999/xlink" height="155.88457268119893" width="285.0">
        <polyline stroke-width="1" fill="none" stroke="black" points="
20.0,12.990381056766577 25.0,4.330127018922187 35.0,4.330127018922191 40.0,12.990381056766577 35.0,21.650635094610962 40.0,30.310889132455348 35.0,38.97114317029973 25.0,38.97114317029974 20.0,47.63139720814412 25.0,56.291651245988504 35.0,56.291651245988504 40.0,47.631397208144115 50.0,47.63139720814412 55.0,56.291651245988504 50.0,64.95190528383289 40.0,64.9519052838329 35.0,73.61215932167727 25.0,73.61215932167727 20.0,82.27241335952166 25.0,90.93266739736605 20.0,99.59292143521043 25.0,108.25317547305481 20.0,116.91342951089919 25.0,125.57368354874359 20.0,116.9134295108992 25.0,108.25317547305481 35.0,108.25317547305482 40.0,116.9134295108992 50.0,116.9134295108992 55.0,125.57368354874359 50.0,134.23393758658796 55.0,125.5736835487436 50.0,116.9134295108992 40.0,116.9134295108992 35.0,108.25317547305481 40.0,99.59292143521041 50.0,99.59292143521043 55.0,108.25317547305481 65.0,108.25317547305482 70.0,99.59292143521041 80.0,99.59292143521043 85.0,108.25317547305481 80.0,116.91342951089919 85.0,125.57368354874359 80.0,134.23393758658796 85.0,125.5736835487436 80.0,116.9134295108992 85.0,108.25317547305481 95.0,108.25317547305482 100.0,99.59292143521041 110.0,99.59292143521043 115.0,108.25317547305481 110.0,116.91342951089919 115.0,125.57368354874359 110.0,134.23393758658796 115.0,125.5736835487436 125.0,125.5736835487436 130.0,116.9134295108992 125.0,108.25317547305481 130.0,99.59292143521041 125.0,108.25317547305481 130.0,116.9134295108992 125.0,125.57368354874359 115.0,125.5736835487436 110.0,116.9134295108992 115.0,108.25317547305481 110.0,99.59292143521043 115.0,90.93266739736605 125.0,90.93266739736605 130.0,82.27241335952166 140.0,82.27241335952166 130.0,82.27241335952166 125.0,73.61215932167727 130.0,64.95190528383289 125.0,56.291651245988504 130.0,47.631397208144115 140.0,47.63139720814412 145.0,38.971143170299726 155.0,38.97114317029973 160.0,30.310889132455344 170.0,30.310889132455348 175.0,38.97114317029973 185.0,38.97114317029973 175.0,38.97114317029974 170.0,30.31088913245535 160.0,30.31088913245535 155.0,38.97114317029973 145.0,38.97114317029974 140.0,30.31088913245535 145.0,21.65063509461096 140.0,30.310889132455348 130.0,30.31088913245535 125.0,21.650635094610962 130.0,30.310889132455348 140.0,30.310889132455348 145.0,38.97114317029973 140.0,47.63139720814412 130.0,47.63139720814412 125.0,38.97114317029973 115.0,38.97114317029974 110.0,30.31088913245535 100.0,30.31088913245535 95.0,38.97114317029973 85.0,38.97114317029974 80.0,47.63139720814412 85.0,56.291651245988504 80.0,64.95190528383289 85.0,73.61215932167727 80.0,82.27241335952166 85.0,90.93266739736605 95.0,90.93266739736605 100.0,99.59292143521043 95.0,108.25317547305481 85.0,108.25317547305481 80.0,99.59292143521043 70.0,99.59292143521044 65.0,90.93266739736605 55.0,90.93266739736605 50.0,82.27241335952166 55.0,73.61215932167727 65.0,73.61215932167728 70.0,82.27241335952166 65.0,73.61215932167727 70.0,64.95190528383289 65.0,56.291651245988504 70.0,47.631397208144115 65.0,38.97114317029973 70.0,30.310889132455344 65.0,21.650635094610962 70.0,30.310889132455348 65.0,38.97114317029973 55.0,38.97114317029974 50.0,30.31088913245535 40.0,30.31088913245535 35.0,21.650635094610962 40.0,12.990381056766573 50.0,12.990381056766577 55.0,21.650635094610962 50.0,12.990381056766578 55.0,4.330127018922187 65.0,4.330127018922191 70.0,12.990381056766577 80.0,12.990381056766577 85.0,4.330127018922187 95.0,4.330127018922191 100.0,12.990381056766577 95.0,21.650635094610962 85.0,21.650635094610966 80.0,30.310889132455348 85.0,21.65063509461096 95.0,21.650635094610962 100.0,12.990381056766573 110.0,12.990381056766577 115.0,21.650635094610962 110.0,12.990381056766578 115.0,4.330127018922187 125.0,4.330127018922191 130.0,12.990381056766577 140.0,12.990381056766577 145.0,4.330127018922187 155.0,4.330127018922191 160.0,12.990381056766577 155.0,21.650635094610962 160.0,12.990381056766573 170.0,12.990381056766577 175.0,4.330127018922187 185.0,4.330127018922191 190.0,12.990381056766577 200.0,12.990381056766577 205.0,4.330127018922187 215.0,4.330127018922191 220.0,12.990381056766577 230.0,12.990381056766577 235.0,4.330127018922187 245.0,4.330127018922191 250.0,12.990381056766577 245.0,21.650635094610962 250.0,30.310889132455348 260.0,30.310889132455348 265.0,21.65063509461096 260.0,30.310889132455348 250.0,30.31088913245535 245.0,21.650635094610962 250.0,12.990381056766573 260.0,12.990381056766577 265.0,4.330127018922187 275.0,4.330127018922191 280.0,12.990381056766577 275.0,21.650635094610962 280.0,30.310889132455348 275.0,38.97114317029973 280.0,47.63139720814412 275.0,56.291651245988504 280.0,64.95190528383289 275.0,73.61215932167727 265.0,73.61215932167727 260.0,64.95190528383289 265.0,73.61215932167727 260.0,82.27241335952166 265.0,90.93266739736605 260.0,82.27241335952166 265.0,73.61215932167727 275.0,73.61215932167728 280.0,82.27241335952166 275.0,90.93266739736605 280.0,99.59292143521043 275.0,108.25317547305481 280.0,116.9134295108992 275.0,125.57368354874359 265.0,125.5736835487436 260.0,116.9134295108992 250.0,116.9134295108992 245.0,125.57368354874359 235.0,125.5736835487436 230.0,116.9134295108992 235.0,125.57368354874359 230.0,134.23393758658796 235.0,125.5736835487436 245.0,125.5736835487436 250.0,116.9134295108992 260.0,116.9134295108992 265.0,125.57368354874359 275.0,125.5736835487436 280.0,134.23393758658798 275.0,142.89419162443238 265.0,142.89419162443238 260.0,151.55444566227675 250.0,151.55444566227675 245.0,142.89419162443238 250.0,134.23393758658796 260.0,134.23393758658798 250.0,134.23393758658796 245.0,142.89419162443238 235.0,142.89419162443238 230.0,151.55444566227675 220.0,151.55444566227675 215.0,142.89419162443238 205.0,142.89419162443238 200.0,134.23393758658798 205.0,125.5736835487436 200.0,116.9134295108992 205.0,125.57368354874359 200.0,134.23393758658796 205.0,142.89419162443238 200.0,151.55444566227675 190.0,151.55444566227675 185.0,142.89419162443238 175.0,142.89419162443238 170.0,134.23393758658798 175.0,142.89419162443238 170.0,151.55444566227675 160.0,151.55444566227675 155.0,142.89419162443238 145.0,142.89419162443238 140.0,151.55444566227675 130.0,151.55444566227675 125.0,142.89419162443238 130.0,134.23393758658796 140.0,134.23393758658798 145.0,125.5736835487436 155.0,125.5736835487436 160.0,134.23393758658798 155.0,125.57368354874359 160.0,116.9134295108992 170.0,116.9134295108992 175.0,125.57368354874359 185.0,125.5736835487436 190.0,134.23393758658798 185.0,125.57368354874359 190.0,116.9134295108992 185.0,108.25317547305481 190.0,99.59292143521041 185.0,108.25317547305481 175.0,108.25317547305481 170.0,99.59292143521043 175.0,90.93266739736605 185.0,90.93266739736605 190.0,82.27241335952166 200.0,82.27241335952166 205.0,90.93266739736605 215.0,90.93266739736605 220.0,82.27241335952166 215.0,90.93266739736605 205.0,90.93266739736605 200.0,82.27241335952166 190.0,82.27241335952166 185.0,73.61215932167727 190.0,64.95190528383289 185.0,56.291651245988504 190.0,47.631397208144115 200.0,47.63139720814412 205.0,38.971143170299726 200.0,30.31088913245535 205.0,21.65063509461096 215.0,21.650635094610962 220.0,30.310889132455348 230.0,30.310889132455348 235.0,38.97114317029973 230.0,47.63139720814412 220.0,47.63139720814412 215.0,38.97114317029973 220.0,47.63139720814412 215.0,56.291651245988504 205.0,56.291651245988504 200.0,64.95190528383289 205.0,73.61215932167727 215.0,73.61215932167728 220.0,64.95190528383289 230.0,64.95190528383289 235.0,73.61215932167727 230.0,82.27241335952166 235.0,90.93266739736605 230.0,99.59292143521043 220.0,99.59292143521044 215.0,108.25317547305481 205.0,108.25317547305481 200.0,99.59292143521043 205.0,108.25317547305481 215.0,108.25317547305482 220.0,116.9134295108992 215.0,125.57368354874359 220.0,134.23393758658798 215.0,125.57368354874359 220.0,116.9134295108992 215.0,108.25317547305481 220.0,99.59292143521041 230.0,99.59292143521043 235.0,108.25317547305481 245.0,108.25317547305482 250.0,99.59292143521041 260.0,99.59292143521043 265.0,108.25317547305481 260.0,99.59292143521043 250.0,99.59292143521044 245.0,90.93266739736605 250.0,82.27241335952166 245.0,73.61215932167727 250.0,64.95190528383289 245.0,56.291651245988504 250.0,47.631397208144115 260.0,47.63139720814412 265.0,56.291651245988504 260.0,47.63139720814412 265.0,38.971143170299726 260.0,47.63139720814412 250.0,47.63139720814412 245.0,38.97114317029973 235.0,38.97114317029974 230.0,30.31088913245535 235.0,21.65063509461096 230.0,30.310889132455348 220.0,30.31088913245535 215.0,21.650635094610962 205.0,21.650635094610966 200.0,30.310889132455348 190.0,30.31088913245535 185.0,21.650635094610962 175.0,21.650635094610966 185.0,21.650635094610962 190.0,30.310889132455348 200.0,30.310889132455348 205.0,38.97114317029973 200.0,47.63139720814412 190.0,47.63139720814412 185.0,56.291651245988504 175.0,56.291651245988504 170.0,47.63139720814412 160.0,47.63139720814412 155.0,56.291651245988504 145.0,56.291651245988504 140.0,64.95190528383289 145.0,73.61215932167727 155.0,73.61215932167728 160.0,64.95190528383289 170.0,64.95190528383289 175.0,73.61215932167727 170.0,82.27241335952166 160.0,82.27241335952166 155.0,90.93266739736605 145.0,90.93266739736605 140.0,99.59292143521043 145.0,108.25317547305481 140.0,116.91342951089919 145.0,125.57368354874359 140.0,134.23393758658796 130.0,134.23393758658796 125.0,142.89419162443238 115.0,142.89419162443238 110.0,151.55444566227675 100.0,151.55444566227675 95.0,142.89419162443238 100.0,134.23393758658796 95.0,125.57368354874359 100.0,116.9134295108992 95.0,125.57368354874359 100.0,134.23393758658798 95.0,142.89419162443238 85.0,142.89419162443238 80.0,151.55444566227675 70.0,151.55444566227675 65.0,142.89419162443238 70.0,134.23393758658796 65.0,125.57368354874359 70.0,116.9134295108992 65.0,125.57368354874359 70.0,134.23393758658798 65.0,142.89419162443238 55.0,142.89419162443238 50.0,151.55444566227675 40.0,151.55444566227675 35.0,142.89419162443238 40.0,134.23393758658796 35.0,125.57368354874359 40.0,134.23393758658798 35.0,142.89419162443238 25.0,142.89419162443238 20.0,151.55444566227675 10.000000000000002,151.55444566227675 5.0,142.89419162443238 10.000000000000002,134.23393758658796 20.0,134.23393758658798 10.000000000000002,134.23393758658796 5.0,125.57368354874359 10.000000000000002,116.9134295108992 5.0,108.25317547305481 10.000000000000002,99.59292143521041 5.0,90.93266739736605 10.000000000000002,82.27241335952166 5.0,73.61215932167727 10.000000000000002,64.95190528383289 20.0,64.95190528383289 10.000000000000002,64.9519052838329 5.0,56.291651245988504 10.000000000000002,47.631397208144115 5.0,38.97114317029973 10.000000000000002,30.310889132455344 20.0,30.310889132455348 25.0,21.65063509461096 20.0,30.310889132455348 10.000000000000002,30.31088913245535 5.0,21.650635094610962 10.000000000000002,12.990381056766573 20.0,12.990381056766577 " />
        <polyline stroke-width="1" fill="none" stroke="black" points="0,0 285.0,0 285.0,155.88457268119893 0,155.88457268119893 0,0" />
    </svg>