<?xml version="1.0"?>
    <svg version="1.1" xmlns="http://www.w3.org/2000/svg" xmlns:xlink="http://www.w3.org/1999/xlink" height="173.2050807568877" width="150.0">
        <polyline stroke-width="1" fill="none" stroke="black" points="
20.0,47.63139720814412 25.0,56.291651245988504 35.0,56.291651245988504 40.0,64.95190528383289 35.0,73.61215932167727 25.0,73.61215932167727 20.0,82.27241335952166 25.0,90.93266739736605 20.0,99.59292143521043 25.0,90.93266739736605 35.0,90.93266739736605 40.0,99.59292143521043 35.0,108.25317547305481 40.0,99.59292143521041 50.0,99.59292143521043 55.0,90.93266739736605 50.0,82.27241335952166 55.0,73.61215932167727 50.0,64.95190528383289 55.0,73.61215932167727 50.0,82.27241335952166 40.0,82.27241335952166 50.0,82.27241335952166 55.0,90.93266739736605 50.0,99.59292143521043 40.0,99.59292143521044 35.0,90.93266739736605 25.0,90.93266739736605 20.0,82.27241335952166 25.0,73.61215932167727 35.0,73.61215932167728 40.0,64.95190528383289 35.0,56.291651245988504 25.0,56.291651245988504 20.0,47.63139720814412 25.0,38.971143170299726 35.0,38.97114317029973 40.0,30.310889132455344 50.0,30.310889132455348 55.0,21.65063509461096 65.0,21.650635094610962 70.0,30.310889132455348 80.0,30.310889132455348 85.0,38.97114317029973 80.0,47.63139720814412 70.0,47.63139720814412 80.0,47.63139720814412 85.0,56.291651245988504 80.0,64.95190528383289 85.0,56.2916512459885 95.0,56.291651245988504 100.0,64.95190528383289 110.0,64.95190528383289 115.0,73.61215932167727 110.0,82.27241335952166 115.0,90.93266739736605 110.0,99.59292143521043 115.0,108.25317547305481 110.0,116.91342951089919 100.0,116.9134295108992 95.0,125.57368354874359 85.0,125.5736835487436 80.0,116.9134295108992 85.0,108.25317547305481 80.0,116.91342951089919 85.0,125.57368354874359 80.0,134.23393758658796 70.0,134.23393758658796 65.0,142.89419162443238 55.0,142.89419162443238 50.0,134.23393758658798 55.0,125.5736835487436 50.0,134.23393758658796 40.0,134.23393758658796 50.0,134.23393758658798 55.0,142.89419162443238 65.0,142.89419162443235 70.0,134.23393758658796 80.0,134.23393758658798 85.0,142.89419162443238 80.0,151.55444566227675 85.0,142.89419162443232 80.0,134.23393758658798 85.0,125.5736835487436 95.0,125.5736835487436 100.0,134.23393758658798 95.0,125.57368354874359 100.0,116.9134295108992 110.0,116.9134295108992 115.0,108.25317547305481 125.0,108.25317547305482 130.0,116.9134295108992 125.0,108.25317547305481 130.0,99.59292143521041 125.0,90.93266739736605 130.0,99.59292143521043 125.0,108.25317547305481 115.0,108.25317547305481 110.0,99.59292143521043 115.0,90.93266739736605 110.0,82.27241335952166 115.0,73.61215932167727 125.0,73.61215932167728 130.0,64.95190528383289 125.0,56.291651245988504 115.0,56.291651245988504 110.0,47.63139720814412 100.0,47.63139720814412 110.0,47.63139720814412 115.0,56.291651245988504 125.0,56.291651245988504 130.0,64.95190528383289 125.0,73.61215932167727 115.0,73.61215932167727 110.0,64.95190528383289 100.0,64.9519052838329 95.0,56.291651245988504 85.0,56.291651245988504 80.0,47.63139720814412 85.0,38.971143170299726 80.0,30.31088913245535 70.0,30.31088913245535 65.0,21.650635094610962 70.0,12.990381056766573 80.0,12.990381056766577 85.0,21.650635094610962 95.0,21.650635094610962 100.0,30.310889132455348 95.0,38.97114317029973 100.0,30.310889132455344 110.0,30.310889132455348 115.0,38.97114317029973 125.0,38.97114317029973 130.0,47.63139720814412 140.0,47.63139720814412 145.0,56.291651245988504 140.0,64.95190528383289 145.0,73.61215932167727 140.0,82.27241335952166 130.0,82.27241335952166 140.0,82.27241335952166 145.0,90.93266739736605 140.0,99.59292143521043 145.0,108.25317547305481 140.0,116.91342951089919 145.0,125.57368354874359 140.0,134.23393758658796 130.0,134.23393758658796 125.0,142.89419162443238 115.0,142.89419162443238 110.0,134.23393758658798 115.0,125.5736835487436 125.0,125.5736835487436 115.0,125.5736835487436 110.0,134.23393758658796 115.0,142.89419162443238 110.0,151.55444566227675 100.0,151.55444566227675 95.0,142.89419162443238 100.0,151.55444566227675 95.0,160.21469970012112 85.0,160.21469970012112 80.0,168.87495373796554 70.0,168.87495373796554 65.0,160.21469970012112 70.0,151.55444566227675 65.0,160.21469970012112 55.0,160.21469970012112 50.0,151.55444566227675 40.0,151.55444566227675 35.0,142.89419162443238 25.0,142.89419162443238 20.0,134.23393758658798 10.000000000000002,134.23393758658796 5.0,125.57368354874359 10.000000000000002,116.9134295108992 20.0,116.9134295108992 25.0,125.57368354874359 35.0,125.5736835487436 40.0,116.9134295108992 50.0,116.9134295108992 55.0,108.25317547305481 65.0,108.25317547305482 70.0,116.9134295108992 65.0,125.57368354874359 70.0,116.9134295108992 65.0,108.25317547305481 70.0,99.59292143521041 80.0,99.59292143521043 85.0,90.93266739736605 80.0,82.27241335952166 85.0,73.61215932167727 95.0,73.61215932167728 100.0,82.27241335952166 95.0,90.93266739736605 100.0,99.59292143521043 95.0,108.25317547305481 100.0,99.59292143521041 95.0,90.93266739736605 100.0,82.27241335952166 95.0,73.61215932167727 85.0,73.61215932167727 80.0,82.27241335952166 70.0,82.27241335952166 65.0,73.61215932167727 70.0,64.95190528383289 65.0,56.291651245988504 55.0,56.291651245988504 50.0,47.63139720814412 55.0,38.971143170299726 65.0,38.97114317029973 55.0,38.97114317029974 50.0,47.63139720814412 40.0,47.63139720814412 50.0,47.63139720814412 55.0,56.291651245988504 65.0,56.291651245988504 70.0,64.95190528383289 65.0,73.61215932167727 70.0,82.27241335952166 65.0,90.93266739736605 70.0,99.59292143521043 65.0,108.25317547305481 55.0,108.25317547305481 50.0,116.91342951089919 40.0,116.9134295108992 35.0,125.57368354874359 25.0,125.5736835487436 20.0,116.9134295108992 25.0,108.25317547305481 20.0,116.91342951089919 10.000000000000002,116.9134295108992 5.0,108.25317547305481 10.000000000000002,99.59292143521041 5.0,90.93266739736605 10.000000000000002,82.27241335952166 5.0,73.61215932167727 10.000000000000002,64.95190528383289 20.0,64.95190528383289 10.000000000000002,64.9519052838329 5.0,56.291651245988504 10.000000000000002,47.631397208144115 20.0,47.63139720814412 25.0,56.291651245988504 " />
        <polyline stroke-width="1" fill="none" stroke="black" points="0,0 150.0,0 150.0,173.2050807568877 0,173.2050807568877 0,0" />
    </svg>