<?xml version="1.0"?>
    <svg version="1.1" xmlns="http://www.w3.org/2000/svg" xmlns:xlink="http://www.w3.org/1999/xlink" height="190.5255888325765" width="165.0">
        <polyline stroke-width="1" fill="none" stroke="black" points="
20.0,12.990381056766577 25.0,21.650635094610962 20.0,30.310889132455348 25.0,38.97114317029973 35.0,38.97114317029973 40.0,47.63139720814412 50.0,47.63139720814412 55.0,56.291651245988504 65.0,56.291651245988504 70.0,64.95190528383289 65.0,73.61215932167727 55.0,73.61215932167727 65.0,73.61215932167728 70.0,82.27241335952166 80.0,82.27241335952166 85.0,90.93266739736605 80.0,99.59292143521043 70.0,99.59292143521044 80.0,99.59292143521043 85.0,108.25317547305481 80.0,116.91342951089919 85.0,125.57368354874359 95.0,125.5736835487436 100.0,116.9134295108992 95.0,108.25317547305481 100.0,99.59292143521041 95.0,90.93266739736605 100.0,82.27241335952166 110.0,82.27241335952166 100.0,82.27241335952166 95.0,73.61215932167727 100.0,64.95190528383289 110.0,64.95190528383289 100.0,64.9519052838329 95.0,56.291651245988504 100.0,47.631397208144115 95.0,38.97114317029973 85.0,38.97114317029974 80.0,30.31088913245535 85.0,21.65063509461096 80.0,30.310889132455348 70.0,30.31088913245535 65.0,21.650635094610962 55.0,21.650635094610966 65.0,21.650635094610962 70.0,30.310889132455348 65.0,38.97114317029973 70.0,47.63139720814412 80.0,47.63139720814412 85.0,56.291651245988504 80.0,64.95190528383289 85.0,73.61215932167727 80.0,64.95190528383289 85.0,56.2916512459885 80.0,47.63139720814412 70.0,47.63139720814412 65.0,38.97114317029973 70.0,30.310889132455344 80.0,30.310889132455348 85.0,38.97114317029973 95.0,38.97114317029973 100.0,47.63139720814412 95.0,56.291651245988504 100.0,64.95190528383289 95.0,73.61215932167727 100.0,82.27241335952166 95.0,90.93266739736605 100.0,99.59292143521043 95.0,108.25317547305481 100.0,116.9134295108992 95.0,125.57368354874359 85.0,125.5736835487436 80.0,116.9134295108992 85.0,108.25317547305481 80.0,99.59292143521043 85.0,90.93266739736605 80.0,82.27241335952166 70.0,82.27241335952166 65.0,73.61215932167727 70.0,64.95190528383289 65.0,56.291651245988504 55.0,56.291651245988504 50.0,47.63139720814412 40.0,47.63139720814412 35.0,38.97114317029973 25.0,38.97114317029974 20.0,30.31088913245535 25.0,21.65063509461096 20.0,12.990381056766578 25.0,4.330127018922187 35.0,4.330127018922191 40.0,12.990381056766577 35.0,21.650635094610962 40.0,30.310889132455348 50.0,30.310889132455348 55.0,38.97114317029973 50.0,30.31088913245535 40.0,30.31088913245535 35.0,21.650635094610962 40.0,12.990381056766573 50.0,12.990381056766577 55.0,4.330127018922187 65.0,4.330127018922191 70.0,12.990381056766577 80.0,12.990381056766577 85.0,4.330127018922187 95.0,4.330127018922191 100.0,12.990381056766577 110.0,12.990381056766577 115.0,21.650635094610962 125.0,21.650635094610962 130.0,30.310889132455348 125.0,21.650635094610962 115.0,21.650635094610966 110.0,12.990381056766578 115.0,4.330127018922187 125.0,4.330127018922191 130.0,12.990381056766577 140.0,12.990381056766577 145.0,4.330127018922187 155.0,4.330127018922191 160.0,12.990381056766577 155.0,21.650635094610962 160.0,30.310889132455348 155.0,38.97114317029973 160.0,47.63139720814412 155.0,56.291651245988504 145.0,56.291651245988504 155.0,56.291651245988504 160.0,64.95190528383289 155.0,73.61215932167727 145.0,73.61215932167727 155.0,73.61215932167728 160.0,82.27241335952166 155.0,90.93266739736605 145.0,90.93266739736605 140.0,99.59292143521043 145.0,108.25317547305481 140.0,99.59292143521043 145.0,90.93266739736605 155.0,90.93266739736605 160.0,99.59292143521043 155.0,108.25317547305481 160.0,116.9134295108992 155.0,125.57368354874359 160.0,134.23393758658798 155.0,142.89419162443238 145.0,142.89419162443238 140.0,134.23393758658798 145.0,142.89419162443238 140.0,151.55444566227675 145.0,160.21469970012112 140.0,168.87495373796554 130.0,168.87495373796554 125.0,160.21469970012112 115.0,160.21469970012112 110.0,151.55444566227675 115.0,142.89419162443232 110.0,151.55444566227675 100.0,151.55444566227675 95.0,160.21469970012112 100.0,168.87495373796548 95.0,160.21469970012112 100.0,151.55444566227675 110.0,151.55444566227675 115.0,160.21469970012112 125.0,160.21469970012112 130.0,168.87495373796548 140.0,168.87495373796548 145.0,160.21469970012112 140.0,151.55444566227675 145.0,142.89419162443232 155.0,142.89419162443235 160.0,151.55444566227675 155.0,160.21469970012112 160.0,168.87495373796548 155.0,177.5352077758099 145.0,177.5352077758099 140.0,186.19546181365428 130.0,186.19546181365428 125.0,177.5352077758099 115.0,177.5352077758099 110.0,168.87495373796548 115.0,177.5352077758099 110.0,186.19546181365428 100.0,186.19546181365428 95.0,177.5352077758099 85.0,177.5352077758099 80.0,168.87495373796548 70.0,168.87495373796554 80.0,168.87495373796548 85.0,177.5352077758099 80.0,186.19546181365428 70.0,186.19546181365428 65.0,177.5352077758099 55.0,177.5352077758099 50.0,186.19546181365428 40.0,186.19546181365428 35.0,177.5352077758099 25.0,177.5352077758099 20.0,186.19546181365428 10.000000000000002,186.19546181365428 5.0,177.5352077758099 10.000000000000002,168.87495373796548 5.0,160.21469970012112 10.000000000000002,151.55444566227675 20.0,151.55444566227675 25.0,142.89419162443232 35.0,142.89419162443235 40.0,134.23393758658796 50.0,134.23393758658798 55.0,142.89419162443238 50.0,151.55444566227675 55.0,142.89419162443232 65.0,142.89419162443235 55.0,142.89419162443238 50.0,134.23393758658798 55.0,125.5736835487436 50.0,134.23393758658796 40.0,134.23393758658796 35.0,125.57368354874359 40.0,116.9134295108992 35.0,108.25317547305481 40.0,99.59292143521041 35.0,90.93266739736605 25.0,90.93266739736605 20.0,82.27241335952166 25.0,90.93266739736605 35.0,90.93266739736605 40.0,99.59292143521043 35.0,108.25317547305481 25.0,108.25317547305481 20.0,116.91342951089919 25.0,108.25317547305481 35.0,108.25317547305482 40.0,116.9134295108992 35.0,125.57368354874359 40.0,134.23393758658798 35.0,142.89419162443238 25.0,142.89419162443238 20.0,151.55444566227675 10.000000000000002,151.55444566227675 5.0,142.89419162443238 10.000000000000002,134.23393758658796 20.0,134.23393758658798 25.0,125.5736835487436 20.0,134.23393758658796 10.000000000000002,134.23393758658796 5.0,125.57368354874359 10.000000000000002,116.9134295108992 5.0,108.25317547305481 10.000000000000002,99.59292143521041 20.0,99.59292143521043 10.000000000000002,99.59292143521044 5.0,90.93266739736605 10.000000000000002,82.27241335952166 5.0,73.61215932167727 10.000000000000002,64.95190528383289 5.0,56.291651245988504 10.000000000000002,47.631397208144115 20.0,47.63139720814412 25.0,56.291651245988504 35.0,56.291651245988504 40.0,64.95190528383289 35.0,73.61215932167727 25.0,73.61215932167727 20.0,64.95190528383289 25.0,73.61215932167727 35.0,73.61215932167728 40.0,82.27241335952166 50.0,82.27241335952166 55.0,90.93266739736605 50.0,99.59292143521043 55.0,108.25317547305481 50.0,116.91342951089919 55.0,108.25317547305481 65.0,108.25317547305482 70.0,116.9134295108992 65.0,125.57368354874359 70.0,134.23393758658798 80.0,134.23393758658798 85.0,142.89419162443238 80.0,151.55444566227675 70.0,151.55444566227675 65.0,160.21469970012112 55.0,160.21469970012112 50.0,168.87495373796554 40.0,168.87495373796554 35.0,160.21469970012112 40.0,151.55444566227675 35.0,160.21469970012112 25.0,160.21469970012112 20.0,168.87495373796554 25.0,160.21469970012112 35.0,160.21469970012112 40.0,168.87495373796548 50.0,168.87495373796548 55.0,160.21469970012112 65.0,160.21469970012112 70.0,151.55444566227675 80.0,151.55444566227675 85.0,160.21469970012112 80.0,151.55444566227675 85.0,142.89419162443232 95.0,142.89419162443235 100.0,134.23393758658796 110.0,134.23393758658798 115.0,125.5736835487436 110.0,116.9134295108992 115.0,108.25317547305481 110.0,99.59292143521043 115.0,90.93266739736605 125.0,90.93266739736605 130.0,99.59292143521043 125.0,108.25317547305481 130.0,116.9134295108992 125.0,125.57368354874359 130.0,134.23393758658798 125.0,142.89419162443238 130.0,151.55444566227675 125.0,142.89419162443238 130.0,134.23393758658796 125.0,125.57368354874359 130.0,116.9134295108992 140.0,116.9134295108992 145.0,125.57368354874359 140.0,116.9134295108992 130.0,116.9134295108992 125.0,108.25317547305481 130.0,99.59292143521041 125.0,90.93266739736605 130.0,82.27241335952166 140.0,82.27241335952166 130.0,82.27241335952166 125.0,73.61215932167727 130.0,64.95190528383289 140.0,64.95190528383289 130.0,64.9519052838329 125.0,56.291651245988504 115.0,56.291651245988504 110.0,47.63139720814412 115.0,38.971143170299726 125.0,38.97114317029973 130.0,47.63139720814412 140.0,47.63139720814412 145.0,38.971143170299726 140.0,30.31088913245535 145.0,21.65063509461096 140.0,30.310889132455348 145.0,38.97114317029973 140.0,47.63139720814412 130.0,47.63139720814412 125.0,38.97114317029973 115.0,38.97114317029974 110.0,30.31088913245535 100.0,30.31088913245535 95.0,21.650635094610962 100.0,30.310889132455348 110.0,30.310889132455348 115.0,38.97114317029973 110.0,47.63139720814412 115.0,56.291651245988504 125.0,56.291651245988504 130.0,64.95190528383289 125.0,73.61215932167727 115.0,73.61215932167727 125.0,73.61215932167728 130.0,82.27241335952166 125.0,90.93266739736605 115.0,90.93266739736605 110.0,99.59292143521043 115.0,108.25317547305481 110.0,116.91342951089919 115.0,125.57368354874359 110.0,134.23393758658796 100.0,134.23393758658796 95.0,142.89419162443238 85.0,142.89419162443238 80.0,134.23393758658798 70.0,134.23393758658796 65.0,125.57368354874359 70.0,116.9134295108992 65.0,108.25317547305481 55.0,108.25317547305481 50.0,99.59292143521043 55.0,90.93266739736605 65.0,90.93266739736605 55.0,90.93266739736605 50.0,82.27241335952166 40.0,82.27241335952166 35.0,73.61215932167727 40.0,64.95190528383289 50.0,64.95190528383289 40.0,64.9519052838329 35.0,56.291651245988504 25.0,56.291651245988504 20.0,47.63139720814412 10.000000000000002,47.63139720814412 5.0,38.97114317029973 10.000000000000002,30.310889132455344 5.0,21.650635094610962 10.000000000000002,12.990381056766573 20.0,12.990381056766577 25.0,21.650635094610962 20.0,30.310889132455348 " />
        <polyline stroke-width="1" fill="none" stroke="black" points="0,0 165.0,0 165.0,190.5255888325765 0,190.5255888325765 0,0" />
    </svg>