<?xml version="1.0"?>
    <svg version="1.1" xmlns="http://www.w3.org/2000/svg" xmlns:xlink="http://www.w3.org/1999/xlink" height="155.88457268119893" width="105.0">
        <polyline stroke-width="1" fill="none" stroke="black" points="
19.0,14.722431864335453 22.0,12.990381056766578 26.0,6.062177826491066 34.0,6.062177826491068 38.0,12.990381056766577 34.0,19.918584287042087 34.0,23.382685902179837 38.0,30.310889132455348 34.0,37.23909236273086 26.0,37.23909236273086 23.0,38.97114317029973 19.0,45.89934640057524 19.0,49.363448015713 22.0,47.63139720814412 26.0,40.70319397786861 34.0,40.70319397786861 37.0,38.97114317029973 41.0,32.042939940024226 49.0,32.042939940024226 52.0,30.31088913245535 56.0,23.382685902179837 64.0,23.382685902179837 67.0,21.650635094610962 64.0,19.918584287042087 56.0,19.918584287042087 53.0,21.650635094610962 49.0,28.57883832488647 41.0,28.578838324886473 37.0,21.650635094610962 41.0,14.722431864335451 49.0,14.722431864335453 52.0,12.990381056766578 56.0,6.062177826491066 64.0,6.062177826491068 68.0,12.990381056766577 71.0,14.722431864335451 79.0,14.722431864335453 83.0,21.650635094610962 79.0,28.57883832488647 79.0,32.042939940024226 83.0,38.97114317029973 79.0,45.89934640057524 79.0,49.363448015713 83.0,56.291651245988504 79.0,63.21985447626401 79.0,66.68395609140177 82.0,64.95190528383289 86.0,58.02370205355737 86.0,54.55960043841963 82.0,47.63139720814412 86.0,40.70319397786861 86.0,37.23909236273086 82.0,30.31088913245535 86.0,23.382685902179837 86.0,19.918584287042087 82.0,12.990381056766578 86.0,6.062177826491066 94.0,6.062177826491068 98.0,12.990381056766577 94.0,19.918584287042087 94.0,23.382685902179837 98.0,30.310889132455348 94.0,37.23909236273086 94.0,40.70319397786861 98.0,47.63139720814412 94.0,54.55960043841963 94.0,58.02370205355738 98.0,64.95190528383289 94.0,71.8801085141084 94.0,75.34421012924616 98.0,82.27241335952166 94.0,89.20061658979718 86.0,89.20061658979718 83.0,90.93266739736605 86.0,92.66471820493491 94.0,92.66471820493491 98.0,99.59292143521043 94.0,106.52112466548594 86.0,106.52112466548594 83.0,108.25317547305481 79.0,115.18137870333032 71.0,115.18137870333032 68.0,116.9134295108992 64.0,123.84163274117472 56.0,123.84163274117472 52.0,116.9134295108992 49.0,115.18137870333032 41.0,115.18137870333032 37.0,108.25317547305481 41.0,101.3249722427793 41.0,97.86087062764156 37.0,90.93266739736605 41.0,84.00446416709053 41.0,80.54036255195278 38.0,82.27241335952166 34.0,89.20061658979718 34.0,92.66471820493491 38.0,99.59292143521043 34.0,106.52112466548594 34.0,109.98522628062369 38.0,116.9134295108992 34.0,123.84163274117472 34.0,127.30573435631247 38.0,134.23393758658798 41.0,135.96598839415685 41.0,132.50188677901912 37.0,125.57368354874359 41.0,118.64548031846807 49.0,118.64548031846807 53.0,125.57368354874359 56.0,127.30573435631247 64.0,127.30573435631247 68.0,134.23393758658798 71.0,135.96598839415685 71.0,132.50188677901912 67.0,125.57368354874359 71.0,118.64548031846807 79.0,118.64548031846807 82.0,116.9134295108992 86.0,109.98522628062369 94.0,109.98522628062369 98.0,116.9134295108992 94.0,123.84163274117472 94.0,127.30573435631247 98.0,134.23393758658798 94.0,141.16214081686348 86.0,141.16214081686348 82.0,134.23393758658798 86.0,127.30573435631247 86.0,123.84163274117472 83.0,125.57368354874359 79.0,132.50188677901912 79.0,135.96598839415685 83.0,142.89419162443238 79.0,149.82239485470785 71.0,149.82239485470785 67.0,142.89419162443238 64.0,141.16214081686348 56.0,141.16214081686348 52.0,134.23393758658798 49.0,132.50188677901912 49.0,135.96598839415685 53.0,142.89419162443238 49.0,149.82239485470785 41.0,149.82239485470785 37.0,142.89419162443238 34.0,141.16214081686348 26.0,141.16214081686348 23.0,142.89419162443238 19.0,149.82239485470785 11.000000000000002,149.82239485470785 7.0,142.89419162443238 11.000000000000002,135.96598839415685 11.000000000000002,132.50188677901912 7.0,125.57368354874359 11.000000000000002,118.64548031846807 11.000000000000002,115.18137870333032 7.0,108.25317547305481 11.000000000000002,101.3249722427793 11.000000000000002,97.86087062764156 7.0,90.93266739736605 11.000000000000002,84.00446416709053 11.000000000000002,80.54036255195278 7.0,73.61215932167727 11.000000000000002,66.68395609140177 19.0,66.68395609140177 23.0,73.61215932167727 19.0,80.54036255195278 19.0,84.00446416709053 23.0,90.93266739736605 19.0,97.86087062764156 19.0,101.3249722427793 23.0,108.25317547305481 19.0,115.18137870333032 19.0,118.64548031846807 23.0,125.57368354874359 19.0,132.50188677901912 19.0,135.96598839415685 22.0,134.23393758658798 26.0,127.30573435631247 26.0,123.84163274117472 22.0,116.9134295108992 26.0,109.98522628062369 26.0,106.52112466548594 22.0,99.59292143521043 26.0,92.66471820493491 26.0,89.20061658979718 22.0,82.27241335952166 26.0,75.34421012924615 34.0,75.34421012924616 37.0,73.61215932167727 41.0,66.68395609140177 49.0,66.68395609140177 53.0,73.61215932167727 49.0,80.54036255195278 49.0,84.00446416709053 53.0,90.93266739736605 49.0,97.86087062764156 49.0,101.3249722427793 53.0,108.25317547305481 56.0,109.98522628062369 64.0,109.98522628062369 67.0,108.25317547305481 71.0,101.3249722427793 79.0,101.3249722427793 82.0,99.59292143521043 79.0,97.86087062764156 71.0,97.86087062764156 67.0,90.93266739736605 71.0,84.00446416709053 79.0,84.00446416709053 82.0,82.27241335952166 86.0,75.34421012924615 86.0,71.8801085141084 83.0,73.61215932167727 79.0,80.54036255195278 71.0,80.54036255195278 67.0,73.61215932167727 71.0,66.68395609140177 71.0,63.21985447626402 67.0,56.291651245988504 71.0,49.36344801571299 71.0,45.89934640057524 67.0,38.97114317029973 71.0,32.042939940024226 71.0,28.578838324886473 68.0,30.310889132455348 64.0,37.23909236273086 56.0,37.23909236273086 53.0,38.97114317029973 49.0,45.89934640057524 41.0,45.89934640057524 38.0,47.63139720814412 34.0,54.55960043841963 26.0,54.55960043841963 23.0,56.291651245988504 19.0,63.21985447626401 11.000000000000002,63.21985447626402 7.0,56.291651245988504 11.000000000000002,49.36344801571299 11.000000000000002,45.89934640057524 7.0,38.97114317029973 11.000000000000002,32.042939940024226 19.0,32.042939940024226 22.0,30.31088913245535 26.0,23.382685902179837 26.0,19.918584287042087 23.0,21.650635094610962 19.0,28.57883832488647 11.000000000000002,28.578838324886473 7.0,21.650635094610962 11.000000000000002,14.722431864335451 19.0,14.722431864335453 22.0,12.990381056766578 " />
        <polyline stroke-width="1" fill="none" stroke="black" points="0,0 105.0,0 105.0,155.88457268119893 0,155.88457268119893 0,0" />
    </svg>