<?xml version="1.0"?>
    <svg version="1.1" xmlns="http://www.w3.org/2000/svg" xmlns:xlink="http://www.w3.org/1999/xlink" height="381.051177665153" width="480.0">
        <polyline stroke-width="1" fill="none" stroke="black" points="
39.0,27.712812921102028 48.0,43.301270189221924 51.0,45.03332099679079 69.0,45.0333209967908 78.0,60.621778264910695 81.0,62.35382907247957 99.0,62.35382907247957 108.0,77.94228634059947 111.0,79.67433714816833 111.0,76.2102355330306 102.0,60.6217782649107 99.0,58.88972745734182 81.0,58.88972745734182 72.0,43.301270189221924 69.0,41.56921938165305 51.0,41.569219381653056 42.0,25.980762113533157 51.0,10.39230484541325 69.0,10.392304845413257 78.0,25.980762113533153 81.0,27.712812921102024 99.0,27.712812921102028 102.0,25.980762113533157 111.0,10.39230484541325 129.0,10.392304845413257 138.0,25.980762113533153 141.0,27.712812921102024 159.0,27.712812921102028 168.0,43.301270189221924 159.0,58.88972745734182 159.0,62.35382907247957 168.0,77.94228634059947 171.0,79.67433714816833 189.0,79.67433714816835 198.0,95.26279441628824 189.0,110.85125168440813 171.0,110.85125168440814 168.0,112.58330249197701 171.0,114.31535329954588 189.0,114.31535329954588 198.0,129.90381056766577 201.0,131.63586137523464 201.0,128.1717597600969 192.0,112.58330249197701 201.0,96.99484522385711 201.0,93.53074360871936 192.0,77.94228634059947 201.0,62.35382907247957 201.0,58.88972745734182 198.0,60.621778264910695 189.0,76.21023553303058 171.0,76.2102355330306 162.0,60.6217782649107 171.0,45.03332099679079 171.0,41.569219381653056 162.0,25.980762113533157 171.0,10.39230484541325 189.0,10.392304845413257 198.0,25.980762113533153 189.0,41.56921938165305 189.0,45.0333209967908 192.0,43.301270189221924 201.0,27.712812921102024 219.0,27.712812921102028 222.0,25.980762113533157 231.0,10.39230484541325 249.0,10.392304845413257 258.0,25.980762113533153 261.0,27.712812921102024 279.0,27.712812921102028 288.0,43.301270189221924 291.0,45.03332099679079 291.0,41.569219381653056 282.0,25.980762113533157 291.0,10.39230484541325 309.0,10.392304845413257 318.0,25.980762113533153 321.0,27.712812921102024 339.0,27.712812921102028 348.0,43.301270189221924 339.0,58.88972745734182 339.0,62.35382907247957 348.0,77.94228634059947 351.0,79.67433714816833 351.0,76.2102355330306 342.0,60.6217782649107 351.0,45.03332099679079 351.0,41.569219381653056 342.0,25.980762113533157 351.0,10.39230484541325 369.0,10.392304845413257 378.0,25.980762113533153 381.0,27.712812921102024 399.0,27.712812921102028 408.0,43.301270189221924 411.0,45.03332099679079 429.0,45.0333209967908 438.0,60.621778264910695 429.0,76.21023553303058 429.0,79.67433714816835 432.0,77.94228634059947 441.0,62.35382907247957 441.0,58.88972745734182 432.0,43.301270189221924 429.0,41.56921938165305 411.0,41.569219381653056 402.0,25.980762113533157 411.0,10.39230484541325 429.0,10.392304845413257 438.0,25.980762113533153 441.0,27.712812921102024 459.0,27.712812921102028 468.0,43.301270189221924 459.0,58.88972745734182 459.0,62.35382907247957 468.0,77.94228634059947 459.0,93.53074360871936 459.0,96.99484522385711 468.0,112.58330249197701 459.0,128.1717597600969 459.0,131.63586137523464 468.0,147.22431864335454 459.0,162.81277591147443 441.0,162.81277591147443 438.0,164.54482671904333 429.0,180.13328398716322 411.0,180.13328398716322 402.0,164.54482671904333 411.0,148.95636945092343 411.0,145.49226783578567 408.0,147.22431864335454 399.0,162.81277591147443 399.0,166.2768775266122 408.0,181.8653347947321 399.0,197.453792062852 381.0,197.453792062852 372.0,181.8653347947321 369.0,180.13328398716322 369.0,183.59738560230096 378.0,199.18584287042086 369.0,214.77430013854075 351.0,214.77430013854075 342.0,199.18584287042086 339.0,197.453792062852 321.0,197.453792062852 312.0,181.8653347947321 309.0,180.13328398716322 309.0,183.59738560230096 318.0,199.18584287042086 309.0,214.77430013854075 309.0,218.23840175367852 318.0,233.8268590217984 321.0,235.55890982936728 339.0,235.55890982936728 348.0,251.14736709748718 351.0,252.87941790505607 369.0,252.87941790505607 378.0,268.46787517317597 381.0,270.19992598074487 381.0,266.7358243656071 372.0,251.14736709748718 369.0,249.4153162899183 351.0,249.4153162899183 342.0,233.8268590217984 339.0,232.09480821422952 321.0,232.09480821422952 312.0,216.50635094610962 321.0,200.91789367798972 339.0,200.91789367798972 348.0,216.50635094610962 351.0,218.23840175367852 369.0,218.23840175367852 372.0,216.50635094610962 381.0,200.91789367798972 399.0,200.91789367798972 402.0,199.18584287042086 411.0,183.59738560230096 429.0,183.59738560230096 438.0,199.18584287042086 429.0,214.77430013854075 429.0,218.23840175367852 432.0,216.50635094610962 441.0,200.91789367798972 441.0,197.453792062852 432.0,181.8653347947321 441.0,166.2768775266122 459.0,166.2768775266122 468.0,181.8653347947321 459.0,197.453792062852 459.0,200.91789367798972 468.0,216.50635094610962 459.0,232.09480821422952 459.0,235.55890982936728 468.0,251.14736709748718 459.0,266.7358243656071 459.0,270.19992598074487 468.0,285.78838324886476 459.0,301.37684051698466 441.0,301.37684051698466 438.0,303.1088913245535 441.0,304.84094213212234 459.0,304.84094213212234 468.0,320.42939940024223 459.0,336.0178566683621 441.0,336.0178566683621 438.0,337.74990747593097 441.0,339.4819582834999 459.0,339.4819582834999 468.0,355.0704155516198 459.0,370.6588728197397 441.0,370.6588728197397 432.0,355.0704155516198 429.0,353.33836474405086 411.0,353.33836474405086 402.0,337.74990747593097 399.0,336.0178566683621 381.0,336.0178566683621 378.0,337.74990747593097 381.0,339.4819582834999 399.0,339.4819582834999 408.0,355.0704155516198 399.0,370.6588728197397 381.0,370.6588728197397 372.0,355.0704155516198 369.0,353.33836474405086 351.0,353.33836474405086 342.0,337.74990747593097 351.0,322.1614502078111 351.0,318.6973485926734 348.0,320.42939940024223 339.0,336.0178566683621 321.0,336.0178566683621 312.0,320.42939940024223 321.0,304.84094213212234 321.0,301.37684051698466 312.0,285.78838324886476 309.0,284.05633244129587 291.0,284.05633244129587 288.0,285.78838324886476 291.0,287.5204340564336 309.0,287.5204340564336 318.0,303.1088913245535 309.0,318.6973485926734 291.0,318.6973485926734 288.0,320.42939940024223 279.0,336.0178566683621 261.0,336.0178566683621 252.0,320.42939940024223 249.0,318.6973485926734 231.0,318.6973485926734 228.0,320.42939940024223 219.0,336.0178566683621 201.0,336.0178566683621 192.0,320.42939940024223 201.0,304.84094213212234 201.0,301.37684051698466 192.0,285.78838324886476 201.0,270.19992598074487 201.0,266.7358243656071 192.0,251.14736709748718 189.0,249.4153162899183 189.0,252.87941790505607 198.0,268.46787517317597 189.0,284.05633244129587 171.0,284.05633244129587 168.0,285.78838324886476 159.0,301.37684051698466 159.0,304.84094213212234 162.0,303.1088913245535 171.0,287.5204340564336 189.0,287.5204340564336 198.0,303.1088913245535 189.0,318.6973485926734 189.0,322.1614502078111 198.0,337.74990747593097 201.0,339.4819582834999 219.0,339.4819582834999 222.0,337.74990747593097 231.0,322.1614502078111 249.0,322.1614502078111 258.0,337.74990747593097 261.0,339.4819582834999 279.0,339.4819582834999 282.0,337.74990747593097 291.0,322.1614502078111 309.0,322.1614502078111 318.0,337.74990747593097 321.0,339.4819582834999 339.0,339.4819582834999 348.0,355.0704155516198 339.0,370.6588728197397 321.0,370.6588728197397 312.0,355.0704155516198 309.0,353.33836474405086 291.0,353.33836474405086 288.0,355.0704155516198 279.0,370.6588728197397 261.0,370.6588728197397 252.0,355.0704155516198 249.0,353.33836474405086 231.0,353.33836474405086 228.0,355.0704155516198 219.0,370.6588728197397 201.0,370.6588728197397 192.0,355.0704155516198 189.0,353.33836474405086 171.0,353.33836474405086 168.0,355.0704155516198 159.0,370.6588728197397 141.0,370.6588728197397 132.0,355.0704155516198 129.0,353.33836474405086 111.0,353.33836474405086 102.0,337.74990747593097 111.0,322.1614502078111 111.0,318.6973485926734 108.0,320.42939940024223 99.0,336.0178566683621 81.0,336.0178566683621 72.0,320.42939940024223 69.0,318.6973485926734 69.0,322.1614502078111 78.0,337.74990747593097 81.0,339.4819582834999 99.0,339.4819582834999 108.0,355.0704155516198 99.0,370.6588728197397 81.0,370.6588728197397 72.0,355.0704155516198 69.0,353.33836474405086 51.0,353.33836474405086 48.0,355.0704155516198 39.0,370.6588728197397 21.000000000000004,370.6588728197397 12.0,355.0704155516198 21.000000000000004,339.4819582834999 21.000000000000004,336.0178566683621 12.0,320.42939940024223 21.000000000000004,304.84094213212234 21.000000000000004,301.37684051698466 12.0,285.78838324886476 21.000000000000004,270.19992598074487 39.0,270.19992598074487 42.0,268.46787517317597 51.0,252.87941790505607 69.0,252.87941790505607 72.0,251.14736709748718 69.0,249.4153162899183 51.0,249.4153162899183 42.0,233.8268590217984 51.0,218.23840175367852 69.0,218.23840175367852 72.0,216.50635094610962 69.0,214.77430013854075 51.0,214.77430013854075 48.0,216.50635094610962 39.0,232.09480821422952 39.0,235.55890982936728 48.0,251.14736709748718 39.0,266.7358243656071 21.000000000000004,266.7358243656071 12.0,251.14736709748718 21.000000000000004,235.55890982936728 21.000000000000004,232.09480821422952 12.0,216.50635094610962 21.000000000000004,200.91789367798972 21.000000000000004,197.453792062852 12.0,181.8653347947321 21.000000000000004,166.2768775266122 39.0,166.2768775266122 42.0,164.54482671904333 39.0,162.81277591147443 21.000000000000004,162.81277591147443 12.0,147.22431864335454 21.000000000000004,131.63586137523464 39.0,131.63586137523464 42.0,129.90381056766577 39.0,128.1717597600969 21.000000000000004,128.1717597600969 12.0,112.58330249197701 21.000000000000004,96.99484522385711 39.0,96.99484522385711 42.0,95.26279441628824 39.0,93.53074360871936 21.000000000000004,93.53074360871936 12.0,77.94228634059947 21.000000000000004,62.35382907247957 39.0,62.35382907247957 48.0,77.94228634059947 51.0,79.67433714816833 69.0,79.67433714816835 78.0,95.26279441628824 81.0,96.99484522385711 99.0,96.99484522385711 108.0,112.58330249197701 99.0,128.1717597600969 99.0,131.63586137523464 102.0,129.90381056766577 111.0,114.31535329954588 129.0,114.31535329954588 138.0,129.90381056766577 129.0,145.49226783578567 129.0,148.95636945092343 138.0,164.54482671904333 141.0,166.2768775266122 159.0,166.2768775266122 168.0,181.8653347947321 159.0,197.453792062852 159.0,200.91789367798972 162.0,199.18584287042086 171.0,183.59738560230096 171.0,180.13328398716322 162.0,164.54482671904333 159.0,162.81277591147443 141.0,162.81277591147443 132.0,147.22431864335454 141.0,131.63586137523464 159.0,131.63586137523464 168.0,147.22431864335454 171.0,148.95636945092343 189.0,148.95636945092343 198.0,164.54482671904333 201.0,166.2768775266122 219.0,166.2768775266122 228.0,181.8653347947321 219.0,197.453792062852 219.0,200.91789367798972 228.0,216.50635094610962 231.0,218.23840175367852 249.0,218.23840175367852 252.0,216.50635094610962 249.0,214.77430013854075 231.0,214.77430013854075 222.0,199.18584287042086 231.0,183.59738560230096 231.0,180.13328398716322 222.0,164.54482671904333 231.0,148.95636945092343 249.0,148.95636945092343 258.0,164.54482671904333 261.0,166.2768775266122 261.0,162.81277591147443 252.0,147.22431864335454 261.0,131.63586137523464 279.0,131.63586137523464 282.0,129.90381056766577 291.0,114.31535329954588 309.0,114.31535329954588 312.0,112.58330249197701 309.0,110.85125168440813 291.0,110.85125168440814 288.0,112.58330249197701 279.0,128.1717597600969 261.0,128.1717597600969 258.0,129.90381056766577 249.0,145.49226783578567 231.0,145.49226783578567 222.0,129.90381056766577 231.0,114.31535329954588 231.0,110.85125168440814 222.0,95.26279441628824 231.0,79.67433714816833 249.0,79.67433714816835 252.0,77.94228634059947 249.0,76.21023553303058 231.0,76.2102355330306 222.0,60.6217782649107 231.0,45.03332099679079 249.0,45.0333209967908 258.0,60.621778264910695 261.0,62.35382907247957 279.0,62.35382907247957 288.0,77.94228634059947 279.0,93.53074360871936 261.0,93.53074360871936 258.0,95.26279441628824 249.0,110.85125168440813 249.0,114.31535329954588 252.0,112.58330249197701 261.0,96.99484522385711 279.0,96.99484522385711 282.0,95.26279441628824 291.0,79.67433714816833 309.0,79.67433714816835 318.0,95.26279441628824 321.0,96.99484522385711 339.0,96.99484522385711 348.0,112.58330249197701 339.0,128.1717597600969 339.0,131.63586137523464 342.0,129.90381056766577 351.0,114.31535329954588 369.0,114.31535329954588 372.0,112.58330249197701 381.0,96.99484522385711 381.0,93.53074360871936 372.0,77.94228634059947 381.0,62.35382907247957 399.0,62.35382907247957 408.0,77.94228634059947 399.0,93.53074360871936 399.0,96.99484522385711 408.0,112.58330249197701 399.0,128.1717597600969 381.0,128.1717597600969 378.0,129.90381056766577 369.0,145.49226783578567 351.0,145.49226783578567 348.0,147.22431864335454 339.0,162.81277591147443 321.0,162.81277591147443 312.0,147.22431864335454 321.0,131.63586137523464 321.0,128.1717597600969 318.0,129.90381056766577 309.0,145.49226783578567 291.0,145.49226783578567 288.0,147.22431864335454 279.0,162.81277591147443 279.0,166.2768775266122 288.0,181.8653347947321 279.0,197.453792062852 261.0,197.453792062852 252.0,181.8653347947321 249.0,180.13328398716322 249.0,183.59738560230096 258.0,199.18584287042086 261.0,200.91789367798972 279.0,200.91789367798972 288.0,216.50635094610962 279.0,232.09480821422952 279.0,235.55890982936728 288.0,251.14736709748718 279.0,266.7358243656071 261.0,266.7358243656071 258.0,268.46787517317597 249.0,284.05633244129587 231.0,284.05633244129587 222.0,268.46787517317597 231.0,252.87941790505607 249.0,252.87941790505607 252.0,251.14736709748718 261.0,235.55890982936728 261.0,232.09480821422952 258.0,233.8268590217984 249.0,249.4153162899183 231.0,249.4153162899183 222.0,233.8268590217984 219.0,232.09480821422952 201.0,232.09480821422952 192.0,216.50635094610962 201.0,200.91789367798972 201.0,197.453792062852 192.0,181.8653347947321 189.0,180.13328398716322 189.0,183.59738560230096 198.0,199.18584287042086 189.0,214.77430013854075 171.0,214.77430013854075 168.0,216.50635094610962 159.0,232.09480821422952 141.0,232.09480821422952 138.0,233.8268590217984 129.0,249.4153162899183 129.0,252.87941790505607 132.0,251.14736709748718 141.0,235.55890982936728 159.0,235.55890982936728 168.0,251.14736709748718 159.0,266.7358243656071 141.0,266.7358243656071 138.0,268.46787517317597 129.0,284.05633244129587 111.0,284.05633244129587 108.0,285.78838324886476 99.0,301.37684051698466 81.0,301.37684051698466 72.0,285.78838324886476 81.0,270.19992598074487 99.0,270.19992598074487 102.0,268.46787517317597 111.0,252.87941790505607 111.0,249.4153162899183 102.0,233.8268590217984 111.0,218.23840175367852 111.0,214.77430013854075 102.0,199.18584287042086 99.0,197.453792062852 81.0,197.453792062852 72.0,181.8653347947321 81.0,166.2768775266122 99.0,166.2768775266122 108.0,181.8653347947321 111.0,183.59738560230096 129.0,183.59738560230096 138.0,199.18584287042086 129.0,214.77430013854075 129.0,218.23840175367852 132.0,216.50635094610962 141.0,200.91789367798972 141.0,197.453792062852 132.0,181.8653347947321 129.0,180.13328398716322 111.0,180.13328398716322 102.0,164.54482671904333 111.0,148.95636945092343 111.0,145.49226783578567 108.0,147.22431864335454 99.0,162.81277591147443 81.0,162.81277591147443 72.0,147.22431864335454 81.0,131.63586137523464 81.0,128.1717597600969 72.0,112.58330249197701 69.0,110.85125168440813 51.0,110.85125168440814 48.0,112.58330249197701 51.0,114.31535329954588 69.0,114.31535329954588 78.0,129.90381056766577 69.0,145.49226783578567 51.0,145.49226783578567 48.0,147.22431864335454 51.0,148.95636945092343 69.0,148.95636945092343 78.0,164.54482671904333 69.0,180.13328398716322 51.0,180.13328398716322 48.0,181.8653347947321 39.0,197.453792062852 39.0,200.91789367798972 42.0,199.18584287042086 51.0,183.59738560230096 69.0,183.59738560230096 78.0,199.18584287042086 81.0,200.91789367798972 99.0,200.91789367798972 108.0,216.50635094610962 99.0,232.09480821422952 81.0,232.09480821422952 78.0,233.8268590217984 81.0,235.55890982936728 99.0,235.55890982936728 108.0,251.14736709748718 99.0,266.7358243656071 81.0,266.7358243656071 78.0,268.46787517317597 69.0,284.05633244129587 51.0,284.05633244129587 48.0,285.78838324886476 39.0,301.37684051698466 39.0,304.84094213212234 48.0,320.42939940024223 39.0,336.0178566683621 39.0,339.4819582834999 42.0,337.74990747593097 51.0,322.1614502078111 51.0,318.6973485926734 42.0,303.1088913245535 51.0,287.5204340564336 69.0,287.5204340564336 78.0,303.1088913245535 81.0,304.84094213212234 99.0,304.84094213212234 102.0,303.1088913245535 111.0,287.5204340564336 129.0,287.5204340564336 138.0,303.1088913245535 129.0,318.6973485926734 129.0,322.1614502078111 138.0,337.74990747593097 141.0,339.4819582834999 159.0,339.4819582834999 162.0,337.74990747593097 171.0,322.1614502078111 171.0,318.6973485926734 168.0,320.42939940024223 159.0,336.0178566683621 141.0,336.0178566683621 132.0,320.42939940024223 141.0,304.84094213212234 141.0,301.37684051698466 132.0,285.78838324886476 141.0,270.19992598074487 159.0,270.19992598074487 162.0,268.46787517317597 171.0,252.87941790505607 171.0,249.4153162899183 162.0,233.8268590217984 171.0,218.23840175367852 189.0,218.23840175367852 198.0,233.8268590217984 201.0,235.55890982936728 219.0,235.55890982936728 228.0,251.14736709748718 219.0,266.7358243656071 219.0,270.19992598074487 228.0,285.78838324886476 219.0,301.37684051698466 219.0,304.84094213212234 222.0,303.1088913245535 231.0,287.5204340564336 249.0,287.5204340564336 258.0,303.1088913245535 261.0,304.84094213212234 279.0,304.84094213212234 282.0,303.1088913245535 279.0,301.37684051698466 261.0,301.37684051698466 252.0,285.78838324886476 261.0,270.19992598074487 279.0,270.19992598074487 282.0,268.46787517317597 291.0,252.87941790505607 309.0,252.87941790505607 318.0,268.46787517317597 321.0,270.19992598074487 339.0,270.19992598074487 348.0,285.78838324886476 339.0,301.37684051698466 339.0,304.84094213212234 342.0,303.1088913245535 351.0,287.5204340564336 369.0,287.5204340564336 378.0,303.1088913245535 369.0,318.6973485926734 369.0,322.1614502078111 372.0,320.42939940024223 381.0,304.84094213212234 399.0,304.84094213212234 408.0,320.42939940024223 411.0,322.1614502078111 429.0,322.1614502078111 432.0,320.42939940024223 429.0,318.6973485926734 411.0,318.6973485926734 402.0,303.1088913245535 411.0,287.5204340564336 411.0,284.05633244129587 402.0,268.46787517317597 411.0,252.87941790505607 429.0,252.87941790505607 438.0,268.46787517317597 429.0,284.05633244129587 429.0,287.5204340564336 432.0,285.78838324886476 441.0,270.19992598074487 441.0,266.7358243656071 432.0,251.14736709748718 441.0,235.55890982936728 441.0,232.09480821422952 438.0,233.8268590217984 429.0,249.4153162899183 411.0,249.4153162899183 402.0,233.8268590217984 411.0,218.23840175367852 411.0,214.77430013854075 408.0,216.50635094610962 399.0,232.09480821422952 381.0,232.09480821422952 378.0,233.8268590217984 381.0,235.55890982936728 399.0,235.55890982936728 408.0,251.14736709748718 399.0,266.7358243656071 399.0,270.19992598074487 408.0,285.78838324886476 399.0,301.37684051698466 381.0,301.37684051698466 372.0,285.78838324886476 369.0,284.05633244129587 351.0,284.05633244129587 342.0,268.46787517317597 339.0,266.7358243656071 321.0,266.7358243656071 312.0,251.14736709748718 309.0,249.4153162899183 291.0,249.4153162899183 282.0,233.8268590217984 291.0,218.23840175367852 291.0,214.77430013854075 282.0,199.18584287042086 291.0,183.59738560230096 291.0,180.13328398716322 282.0,164.54482671904333 291.0,148.95636945092343 309.0,148.95636945092343 318.0,164.54482671904333 321.0,166.2768775266122 339.0,166.2768775266122 348.0,181.8653347947321 351.0,183.59738560230096 351.0,180.13328398716322 342.0,164.54482671904333 351.0,148.95636945092343 369.0,148.95636945092343 378.0,164.54482671904333 381.0,166.2768775266122 381.0,162.81277591147443 372.0,147.22431864335454 381.0,131.63586137523464 399.0,131.63586137523464 402.0,129.90381056766577 411.0,114.31535329954588 429.0,114.31535329954588 438.0,129.90381056766577 429.0,145.49226783578567 429.0,148.95636945092343 432.0,147.22431864335454 441.0,131.63586137523464 441.0,128.1717597600969 432.0,112.58330249197701 441.0,96.99484522385711 441.0,93.53074360871936 438.0,95.26279441628824 429.0,110.85125168440813 411.0,110.85125168440814 402.0,95.26279441628824 411.0,79.67433714816833 411.0,76.2102355330306 402.0,60.6217782649107 399.0,58.88972745734182 381.0,58.88972745734182 372.0,43.301270189221924 369.0,41.56921938165305 369.0,45.0333209967908 378.0,60.621778264910695 369.0,76.21023553303058 369.0,79.67433714816835 378.0,95.26279441628824 369.0,110.85125168440813 351.0,110.85125168440814 342.0,95.26279441628824 339.0,93.53074360871936 321.0,93.53074360871936 312.0,77.94228634059947 321.0,62.35382907247957 321.0,58.88972745734182 312.0,43.301270189221924 309.0,41.56921938165305 309.0,45.0333209967908 318.0,60.621778264910695 309.0,76.21023553303058 291.0,76.2102355330306 282.0,60.6217782649107 279.0,58.88972745734182 261.0,58.88972745734182 252.0,43.301270189221924 249.0,41.56921938165305 231.0,41.569219381653056 228.0,43.301270189221924 219.0,58.88972745734182 219.0,62.35382907247957 228.0,77.94228634059947 219.0,93.53074360871936 219.0,96.99484522385711 228.0,112.58330249197701 219.0,128.1717597600969 219.0,131.63586137523464 228.0,147.22431864335454 219.0,162.81277591147443 201.0,162.81277591147443 192.0,147.22431864335454 189.0,145.49226783578567 171.0,145.49226783578567 162.0,129.90381056766577 159.0,128.1717597600969 141.0,128.1717597600969 132.0,112.58330249197701 141.0,96.99484522385711 159.0,96.99484522385711 162.0,95.26279441628824 159.0,93.53074360871936 141.0,93.53074360871936 132.0,77.94228634059947 141.0,62.35382907247957 141.0,58.88972745734182 132.0,43.301270189221924 129.0,41.56921938165305 111.0,41.569219381653056 108.0,43.301270189221924 111.0,45.03332099679079 129.0,45.0333209967908 138.0,60.621778264910695 129.0,76.21023553303058 129.0,79.67433714816835 138.0,95.26279441628824 129.0,110.85125168440813 111.0,110.85125168440814 102.0,95.26279441628824 99.0,93.53074360871936 81.0,93.53074360871936 72.0,77.94228634059947 69.0,76.21023553303058 51.0,76.2102355330306 42.0,60.6217782649107 39.0,58.88972745734182 21.000000000000004,58.88972745734182 12.0,43.301270189221924 21.000000000000004,27.712812921102024 39.0,27.712812921102028 48.0,43.301270189221924 51.0,45.03332099679079 " />
        <polyline stroke-width="1" fill="none" stroke="black" points="0,0 480.0,0 480.0,381.051177665153 0,381.051177665153 0,0" />
    </svg>